/* XPM */
static char *_1db5199553f4e93e2d00fc6ba32209eAIFjkt5ksr4vvQ6S[] = {
/* columns rows colors chars-per-pixel */
"64 64 167 2 ",
"   c None",
".  c #1A1C1A",
"X  c #251716",
"o  c #271918",
"O  c #2B1B1B",
"+  c #311F1F",
"@  c #1E211E",
"#  c #33201F",
"$  c #3E2A1F",
"%  c #242623",
"&  c #282722",
"*  c #262926",
"=  c #2C2B26",
"-  c #352121",
";  c #3B2524",
":  c #3F2924",
">  c #312F2A",
",  c #35332D",
"<  c #383630",
"1  c #3B3933",
"2  c #363939",
"3  c #393D3D",
"4  c #343737",
"5  c #402726",
"6  c #412B25",
"7  c #432A2A",
"8  c #463024",
"9  c #4B3326",
"0  c #4F3628",
"q  c #4B3D2B",
"w  c #473D2C",
"e  c #503728",
"r  c #553A2B",
"t  c #5A3E2D",
"y  c #4C412F",
"u  c #5C412F",
"i  c #57412D",
"p  c #4F4330",
"a  c #44433A",
"s  c #48473E",
"d  c #49483E",
"f  c #514532",
"g  c #5E4130",
"h  c #594C36",
"j  c #5C4F39",
"k  c #5F513A",
"l  c #634332",
"z  c #684735",
"x  c #644A34",
"c  c #6C4B36",
"v  c #6F4C38",
"b  c #724E3A",
"n  c #63543D",
"m  c #6C5138",
"M  c #75523C",
"N  c #78523D",
"B  c #76583D",
"V  c #795A3F",
"C  c #3F4343",
"Z  c #424646",
"A  c #4D4B42",
"S  c #454949",
"D  c #4A4E4E",
"F  c #514F45",
"G  c #535147",
"H  c #555349",
"J  c #58564B",
"K  c #5B594E",
"L  c #4D5252",
"P  c #515656",
"I  c #5D5B50",
"U  c #545959",
"Y  c #6A5B41",
"T  c #7D5D41",
"R  c #615F53",
"E  c #766549",
"W  c #78674A",
"Q  c #7B694C",
"!  c #716045",
"~  c #636155",
"^  c #676558",
"/  c #69675A",
"(  c #6D6B5D",
")  c #706E60",
"_  c #747263",
"`  c #797767",
"'  c #7C7A6A",
"]  c #6E7375",
"[  c #757B7C",
"{  c #727779",
"}  c #805F42",
"|  c #846245",
" . c #896647",
".. c #8A6748",
"X. c #816E4F",
"o. c #8D6949",
"O. c #936D4C",
"+. c #96704E",
"@. c #99724F",
"#. c #816F50",
"$. c #867253",
"%. c #8B7655",
"&. c #8D7957",
"*. c #8E7958",
"=. c #9B7451",
"-. c #947E5A",
";. c #A07753",
":. c #A17854",
">. c #817F6E",
",. c #96805C",
"<. c #98825D",
"1. c #82806F",
"2. c #9E8761",
"3. c #9F8862",
"4. c #848271",
"5. c #898675",
"6. c #8B8877",
"7. c #8F8D7A",
"8. c #918F7C",
"9. c #93917E",
"0. c #A48C65",
"q. c #AB9269",
"w. c #B0966C",
"e. c #B99E72",
"r. c #BBA073",
"t. c #C2A678",
"y. c #808687",
"u. c #858B8D",
"i. c #969480",
"p. c #9D9B86",
"a. c #92999B",
"s. c #A5A38D",
"d. c #A9A790",
"f. c #ACAA93",
"g. c #B5B39B",
"h. c #B9B69E",
"j. c #9DA4A6",
"k. c #A2AAAC",
"l. c #BDBBA2",
"z. c #AFB7B9",
"x. c #B0B8BA",
"c. c #C1BFA5",
"v. c #C3C1A7",
"b. c #C5C3A9",
"n. c #C8C7AB",
"m. c #CBCAAE",
"M. c #CFCEB1",
"N. c #D0CFB2",
"B. c #D6D4B7",
"V. c #D2D2B4",
"C. c #D7D4B8",
"Z. c #D7D4B8",
"A. c #D9D6BA",
"S. c #D8D5B9",
"D. c #D9D6BA",
"F. c #DBDABB",
"G. c #DDDBBD",
"H. c #DEDDBE",
"J. c #DDDBBD",
"K. c #E1DFC0",
"L. c #E6E4C5",
"P. c #E3E2C2",
"I. c #E8E8C6",
"U. c #ECEBCA",
"Y. c #F0EECD",
"T. c #F1F0CE",
"R. c #FAFAD6",
/* pixels */
"                                                                                                                                ",
"                                                        R ( ~ ) J I 8.6.                                                        ",
"                                                  H s _ A.L.Y.R.n.g.c.n.` ' 8.>.                                                ",
"                                            > G ( ^ m.Z.' ' 6.6.( _ R ~ m.J.A.( < ,                                             ",
"                                        ) R 9.1 ` n./ ` _ ` _ ' ( _ ^ ( R ' ~ v.< Y.L.H.<                                       ",
"                                    A F 4.L.Y.' , _ ' 4.1._ _ 6.) _ ( ( ~ _ _ 1 l.H.4.8.J.V.>                                   ",
"                                A G ` Z.A.4.' l.= 4.>._ ' _ ^ 4.( _ ) ( ( K K , m.4._ ' ( _ n.F                                 ",
"                              , ) V.F.' 4.` 4.( b., ( _ ` ' ' _ ' I ( ~ ~ K > n.l.) _ ' ` >.( m.,                               ",
"                          H J ( > V.>.` _ / ` _ B.> > I ( ^ _ ^ ( / ^ K ~ > > l.I _ ( 4.` _ _ , / 1.                            ",
"                        J 6.F.n., ' ' 1.` ^ 4.` ) v., H ( , 1 & 1 , = ~ R > I n.) 1.^ ` ' _ ' > ( A.^                           ",
"                      A ) V.H.( ' 1 ' >.` _ ( / ~ l., 1 1 $ $ $ $ $ : , , , ~ c.1.1./ / ` ( 1 _ V.4.J.G                         ",
"                    s ( M.` ` ' ( , ~ ' ( / ~ ~ , > 6 6 6 6 6 6 6 6 6 6 6 6 , 1 ' / ( ( _ I , A.( _ 1.B.s                       ",
"                  1 ^ n.4._ ' _ ( ` , ) / ) 1 , O O O O 6 O O O O O O 6 O O o O < , _ ~ ` , F.( _ _ ` ` M.a                     ",
"                a J m._ _ ` ) ) _ ` 1 K , 1 O         x 9 O         x 9 O         x , < I 7.n.) _ ' 1._ ) A.a                   ",
"                a g.V.` _ _ _ ` ( ~ _ 1 x 9 O         x 9 O         x 9 O         x 9 O < ( ) _ _ ~ ` ` ^ ` v.1                 ",
"              , 1 ~ I ~ / _ _ ( ( ~ ,   x 0 O         m e O         m e O         m 0 O   , / ^ ) ( ( ) ~ ) m.<                 ",
"            A A.< , J ( ( ~ ( ( ~ ,     m r +         M r +         M r +         m r O     , ( ~ / ( ~ I H < 1 G               ",
"            s n.n._ , < / H I ( 1 f Y $.M r + y n W *.B r + y n E &.B r + y n E &.B r + q h Y < ) ~ ~ I , 6.V.A.F               ",
"            F m._ V.' ' , F J 1 x x m M y.C T T T V T u.C V V V V V u.C V V V V V u.C B M m m c , K I 1 K.B.( ( Z.A             ",
"          J n.` ( ( V.I._ < 1 9 9 e r r C @ g g g g g Z @ g g g g g Z @ g g g g g Z . t t r r e 9 < 1 F.6.' >.) m.a             ",
"          G b.) _ ( ^ ' V.1 8 O O O + - - l ; ; ; ; ; ; l ; ; ; ; ; ; l ; ; ; ; ; ; l - - - + + O 9 , ( ' ) ' ` M.R             ",
"          V.' _ ' / ' ' ) , 9 O         | l ;          .l ;          .l ;          .l ;         M e , / ` ' ' ( ' P.A           ",
"        K J.9.1._ _ 1.' 1 x 9 O          .z ;         o.c ;         o.c ;         o.z ;         B r O , ( 1._ / _ Z.J           ",
"        G M.' ' ( ~ ^ _ 1 x 0 O         ..c ;         O.c ;         O.c ;         O.c ;         V r + , ~ ) R R / ` B.G         ",
"        , _ ( ` ~ I ) I 1 x e +         o.v 7         +.b 7         +.b 7         +.v ;         T t + , ~ ( K R / ) b.1         ",
"        M., , , K A ( 1 W c r + f Y %.q.O.b 7 n #.2.r.=.b 7 n #.2.r.=.b 7 n #.2.r.=.b 7 k E %.0.| t - y , J d G 1 1 >.s         ",
"      6.' V.v.> , , < < x [ 3 V T | ..O.k.P :.:.:.:.:.x.U ;.;.;.;.;.z.U ;.;.;.;.;.z.U =.+.O.o. .a.Z T B & < , ) T.H.H.( 1       ",
"      m.( ` ` M.n.~ , , 9 3 . t u l z c L * N N N N N U * N N N N N U * N N N N N U * b b c c z S @ t t & 1 b.M.4.' ' _ K       ",
"      m._ ' 6.6._ n.= O O O r - - ; ; ; 7 M 7 7 7 7 7 7 N 7 7 7 7 7 7 N 7 7 7 7 7 7 M 7 7 ; ; ; ; l - - + , l.) ' ) 1._ F       ",
"      V./ / _ ` / K =     m r -         +.M 7         :.N 7         :.N 7         :.M 7         | l -     , g._ _ ) ' _ H       ",
"      M.( ) ' 4./ ( <     m r +         +.b 7         :.N 7         :.N 7         :.M 7          .l -     , n.( ) 4._ ` F       ",
"      U._ _ ' _ ( ` ,     m r -         O.b 7         :.N 7         :.N 7         :.M 7          .l -     1 m.I R ` ( / K       ",
"      F.R / K K ( / ,     m r +         O.b 7         :.N 7         :.N 7         :.N 7          .l -     , m.' ~ ( ) ~ a       ",
"      m.K F _ I ~ K < n W c r + f Y &.q.O.b 7 Y $.0.t.:.N 7 Y $.0.t.:.N 7 Y $.0.t.:.N 7 n Q -.0. .l - p n , b.) ^ 4.F K s       ",
"      b.K H ` G ~ a , g x [ 3 B T |  .o.k.P :.:.:.:.:.x.U :.:.:.:.:.x.U :.:.:.:.:.x.U =.@.O.o...a.Z T V B , f.^ I _ s F d       ",
"      > < 1 1 , < , , 6 9 2 . t t l l c L % N N N N N U * N N N N N U * N N N N N U * b b c c z S @ t t r , > , , = , < <       ",
"      N.m.H.n.M.V.^ < O O O r + - - ; ; ; b 7 7 7 7 7 7 N 7 7 7 7 7 7 N 7 7 7 7 7 7 N 7 7 ; ; ; ; l - - + , v.F.A.n.n.A.F       ",
"      Z._ ' ' 9.) ~ ,     c r +         O.b 7         :.N 7         :.N 7         :.N 7         | l -     < m.' ' _ ` 4.I       ",
"      V.' ~ / ) ( / ,     c r +         O.b 7         :.N 7         :.N 7         :.N 7          .l -     1 l.R ~ _ 1._ J       ",
"      n._ _ _ ` ^ ~ ,     c r +         O.b 7         :.N 7         :.N 7         :.N 7          .l -     , V._ _ _ ` ' K       ",
"      n.K ) _ ~ K ( ,     c r +         O.b 7         :.N 7         :.N 7         :.N 7          .l -     , M.( ` _ ) / H       ",
"      B.^ ~ K R ' ' , k E c r + f Y %.q.O.b 7 Y $.0.t.:.N 7 Y $.0.t.:.N 7 Y $.0.t.:.N 7 n Q -.0. .l - p n , A.1.~ ~ / ~ s       ",
"      n.J A ) I ' _ > g x { 3 B V } | o.k.P =.;.;.;.;.x.U ;.;.;.;.;.x.U ;.;.;.;.;.x.U =.+.O.o. .a.Z T V B , l.~ K _ F / H       ",
"      l.H A ~ R ` d , 6 9 2 . r t g l z L % M M M M M U * M M M M M U * M M M M M U * b b c c z S @ t t r > p.~ K ~ A R A       ",
"      , , > > , < , < X O O e + + - ; ; ; v 7 7 7 7 7 7 M 7 7 7 7 7 7 M 7 7 7 7 7 7 M 7 5 ; ; ; ; g - + + , 1 , > > > , ,       ",
"      n.b.V.m.V.c.K ,     x e +         o.v 7         =.M 7         =.M 7         =.M 7         | u -     1 b.V.V.M.M.m.G       ",
"      m.( ' >.' ) J <     x 0 +         o.c 7         =.M 7         =.M 7         =.M 7         | u -     < b.R ` _ ' _ d       ",
"      V.( ' _ _ ` I ,     x 0 +         o.c 7         =.M 7         =.b 7         =.M 7         | u -     1 n.) ( ~ ` ' s       ",
"      m._ ) ( ` _ ( ,     x 9 O         o.c 7         =.b 7         =.b 7         =.b 7         | u #     , M._ _ 6._ ' A       ",
"      A.( 4._ ^ I ^ , h Y x 9 O y n X.0...c 7 n X.2.e.=.b 7 n X.2.e.=.b 7 n X.2.e.=.b 7 k E %.3.T t - y j , b.( ) >._ ~ s       ",
"      c.( 1.^ I ` ( , r i ] 2 m M V T | j.L O.@.=.@.@.x.U @.@.=.@.@.x.U @.@.@.@.@.x.U O.O.o. .| a.S B M m , l._ ^ ~ ( I a       ",
"      v.K K ` ~ / I , : 6 2 . e r t u l L % v b b b b U * b b b b b U * b b b b b U * v c z l l S @ t r r , n.( I ( s / A       ",
"      M.I F I G / a = X o O 9 O + - - ; ; c 7 7 7 7 7 7 b 7 7 7 7 7 7 b 7 7 7 7 7 7 b 7 ; ; ; ; - t - + + , f.( H _ s G a       ",
"      1 1 1 , , , = ,     g 9 O          .c 5         +.b 7         +.b 7         +.b 7         T t #     , , > , 1 , , 1       ",
"      g.l.c.n.v.v.( 1     g 9 O         | z ;         O.b 7         O.b 7         O.b 5         T t #     1 v.l.h.g.l.g.1       ",
"      g./ K R ( ^ ^ ,     g 9 O         | z 5         O.b 7         O.b 7         O.b 5         T t #     < g.K K I I / <       ",
"      d.R H K ^ ~ ~ <     g 9 O         | z ;         O.v 7         O.v 7         O.v 5         T t #     , l.I J I G / <       ",
"      s.F G F K J G 1 f Y u 9 O w k Q ,.| l ; n Q -.w.O.v 7 n Q -.w.O.v 7 n Q ,.w.O.v ; j ! $.<.V t + q h , d.G R ~ K A ,       ",
"      i.A G a A F A < q r ] 2 x m M B T j.L o.O.O.O.O.x.U O.O.O.O.O.x.U O.O.O.O.O.x.U o... .| T a.S M m c < s.J R K I a ,       ",
"      i.1 d d 1 a d , $ 6 4 . 9 e r t t D % c c c c c U * c c c c c U * c c c c c U * c z l l u S @ r r e 1 f.s s A A 1 >       ",
"      i.1 1 s , a a = X X O 8 O O + - - ; l ; 7 5 5 5 5 c 5 5 5 5 5 5 c 5 5 5 5 5 5 c : ; ; ; ; - t # + O , i.1 , 1 1 a =       ",
"      8., = 1 , 1 , =     i 8 O         T l ;         O.c 5         O.c 5         O.c :         V r #     , 7.a > 1 , < &       ",
"      , > , , 1 , , <     i 8 O         T l ;         o.c 5         o.c 5         o.c :         V r #     , , , , 1 , , &       ",
"      1 1 , , 1 1 < ,     i 8 O         T l ;         o.c 5         o.c 5         o.c :         B r #     1 , , > , > , ,       "
};
