/* XPM */
static char *ef75a8617e224814cf3a650bb5290ec0FMve91BAa9QF6GaJ[] = {
/* columns rows colors chars-per-pixel */
"64 64 163 2 ",
"   c None",
".  c #252420",
"X  c #272621",
"o  c #282722",
"O  c #292923",
"+  c #2C2B26",
"@  c #2D2C26",
"#  c #2E2C27",
"$  c #302E29",
"%  c #312F2A",
"&  c #32302B",
"*  c #33312C",
"=  c #34322C",
"-  c #35332D",
";  c #37332F",
":  c #36342E",
">  c #37352F",
",  c #383630",
"<  c #393731",
"1  c #3A3832",
"2  c #3B3932",
"3  c #3C3A33",
"4  c #3D3B34",
"5  c #3D3C34",
"6  c #3E3D35",
"7  c #3F3E36",
"8  c #414038",
"9  c #434139",
"0  c #44423A",
"q  c #44433A",
"w  c #45443B",
"e  c #48473E",
"r  c #49483E",
"t  c #4B4940",
"y  c #4C4A41",
"u  c #4D4B42",
"i  c #4E4C43",
"p  c #4F4D44",
"a  c #504E44",
"s  c #514F45",
"d  c #525046",
"f  c #535147",
"g  c #545248",
"h  c #555349",
"j  c #56544A",
"k  c #58564B",
"l  c #5A584D",
"z  c #5B584E",
"x  c #5C594F",
"c  c #5C5A4F",
"v  c #5D5B50",
"b  c #5E5C50",
"n  c #605E52",
"m  c #615F53",
"M  c #626054",
"N  c #636155",
"B  c #646255",
"V  c #656356",
"C  c #676558",
"Z  c #69675A",
"A  c #6A685B",
"S  c #6B695B",
"D  c #6D6A5D",
"F  c #6D6B5D",
"G  c #6E6C5E",
"H  c #6F6D5F",
"J  c #706E60",
"K  c #716F61",
"L  c #727061",
"P  c #737162",
"I  c #747263",
"U  c #757364",
"Y  c #767465",
"T  c #777566",
"R  c #787667",
"E  c #797767",
"W  c #7A7868",
"Q  c #7B7969",
"!  c #7C7A6A",
"~  c #7D7B6B",
"^  c #7E7C6C",
"/  c #7F7D6D",
"(  c #817F6E",
")  c #82806F",
"_  c #838170",
"`  c #848271",
"'  c #858372",
"]  c #868473",
"[  c #888674",
"{  c #898675",
"}  c #8A8776",
"|  c #8B8877",
" . c #8B8977",
".. c #8E8C79",
"X. c #8F8D7A",
"o. c #908E7B",
"O. c #918F7C",
"+. c #92907D",
"@. c #94927F",
"#. c #969480",
"$. c #9D9B86",
"%. c #A4A28C",
"&. c #A6A48E",
"*. c #A9A790",
"=. c #AAA891",
"-. c #ACAA93",
";. c #AEAC95",
":. c #B2B098",
">. c #B3B199",
",. c #B5B39B",
"<. c #B7B59C",
"1. c #B9B69E",
"2. c #BBB8A0",
"3. c #BCBAA1",
"4. c #BDBBA2",
"5. c #BEBBA2",
"6. c #BEBCA2",
"7. c #C0BEA4",
"8. c #C1BFA5",
"9. c #C2C0A6",
"0. c #C3C1A7",
"q. c #C4C2A8",
"w. c #C5C3A8",
"e. c #C7C3A9",
"r. c #C6C4A9",
"t. c #C7C5AA",
"y. c #C8C6AB",
"u. c #C8C7AB",
"i. c #C9C7AC",
"p. c #CAC8AD",
"a. c #CBCAAE",
"s. c #CCCBAE",
"d. c #CECDB0",
"f. c #CFCDB1",
"g. c #CFCEB1",
"h. c #D0CFB2",
"j. c #D0D0B2",
"k. c #D1D1B3",
"l. c #D2D2B4",
"z. c #D4D2B5",
"x. c #D4D3B5",
"c. c #D6D4B7",
"v. c #D7D4B8",
"b. c #D8D5B9",
"n. c #D9D6BA",
"m. c #DAD8BA",
"M. c #DBD9BB",
"N. c #DBDABB",
"B. c #DCDABC",
"V. c #DDDBBD",
"C. c #DEDCBE",
"Z. c #DEDDBE",
"A. c #DFDEBF",
"S. c #E1DFC0",
"D. c #E3E2C2",
"F. c #E6E4C5",
"G. c #E7E5C5",
"H. c #E8E8C6",
"J. c #ECEBCA",
"K. c #F0EECD",
"L. c #F1EFCE",
"P. c #F1F0CE",
"I. c #FAFAD6",
/* pixels */
"                                                                                                                                ",
"                                                        m H V K k v O.|                                                         ",
"                                                  h e L n.F.L.I.i.<.8.i.E Q o.(                                                 ",
"                                            $ f H C a.v.~ Q | | D U m V s.V.n.D , :                                             ",
"                                        K m @.2 E i.Z E I E Y ~ D U C D m Q M 9., L.F.Z.,                                       ",
"                                    y a ` F.L.~ * U Q ` ) Y L } K L H H M L L 2 4.Z.] o.V.k.$                                   ",
"                                y f E v.n._ ~ 4.# _ ( U ~ Y C ` H L K H D c c = a._ L Q H L i.a                                 ",
"                              * K x.N.Q ` E ` D w.* H L E Q Q U ^ b D V V c $ y.4.K Y ~ E ( D a.*                               ",
"                          h k D $ k.( E U A E L c.$ $ v H C U C H Z C l M $ $ 6.v L H _ E U I & A )                             ",
"                        k } N.y.& ~ Q ) E C ` E K 9.* h H = 3 X 6 : # V m $ v y.K ) C E ~ Y ^ $ H n.C                           ",
"                      y K k.Z.H ~ 4 Q ( E I H Z M 6.= 2 2             = & & M 8.) ) Z A E H 2 U k.] V.f                         ",
"                    e D g.E E ~ H = V Q H Z M V : $                         & 2 Q A H H Y v : n.H L ) c.e                       ",
"                  3 C i._ Y ~ L H E : K Z K 2 =                                 , : L M E = N.H L I E E g.q                     ",
"                q k a.L U E K K U E 2 c : 3                                         : , v ..y.K Y ~ ) L K n.w                   ",
"                w :.k.E I L Y E H M Y 2                                                 , H K L L V E E C E 9.3                 ",
"              : 4 M v V A L U D D V =                                                     : A C K H H K M K s.,                 ",
"            y n., : k D H V D H M &                                                         = D M Z H M v j , 2 f               ",
"            e i.y.L * , Z h v H 2                                                             , K M V v : | k.n.a               ",
"            a a.L k.Q ~ * a k 2                                                                 : l v 2 S.c.H H v.i             ",
"          k y.E H H k.H.L , 6                                                                     , 2 N.} Q ( K a.q             ",
"          f r.K U H C ^ x.2                                                                         : H ~ K ^ E g.m             ",
"          x.^ I Q A Q ^ K =                                                                         = Z E ~ Q H Q D.y           ",
"        c V.+.) L Y ) ^ 2                                                                             : H ) L A Y v.k           ",
"        f g.~ Q D V C U 2                                                                             = V K m m Z E c.f         ",
"        : Y H E V v K b 2                                                                             : V D c m Z K w.2         ",
"        g.: & : l p H 2                                                                                 : k r f 2 4 ( e         ",
"      | Q l.9.$ * = , ,                                                                                 O , = K P.Z.Z.H 2       ",
"      a.H E E g.y.M * *                                                                                 O 2 r.g.` ^ ^ U l       ",
"      s.I ~ } } I y.#                                                                                     : 2.K Q K ) Y a       ",
"      l.A Z U E A c #                                                                                     : ,.L L K Q L j       ",
"      g.D K ^ ` A H ,                                                                                     * y.H K ] L E a       ",
"      J.Y I ^ Y H E =                                                                                     2 a.b m E H A l       ",
"      N.m Z l c H A *                                                                                     : a.~ M D K M 8       ",
"      a.l a Y v M c ,                                                                                     = w.K C ` a c e       ",
"      w.l h E f V w *                                                                                     : ;.C v L e a r       ",
"      $ , 6 4 * , : *                                                                                     : $ : = # = , ,       ",
"      h.a.Z.y.g.l.C ,                                                                                     : 9.N.n.y.i.n.a       ",
"      v.L ~ ^ @.K M :                                                                                     , a.Q ^ L E ` v       ",
"      l.Q V A K H A &                                                                                     2 6.m V U ) L k       ",
"      y.I L L E C V :                                                                                     : x.L Y Y E Q c       ",
"      i.c K I M l H =                                                                                     & g.H E I K A h       ",
"      c.C V l m Q Q *                                                                                     * n.) M M A V e       ",
"      i.k p K b Q I $                                                                                     : 4.M c I a A j       ",
"      2.j i V m E r =                                                                                     $ $.M c M i m i       ",
"      = : $ $ : , : ,                                                                                     : 2 = $ $ $ : :       ",
"      y.w.k.s.x.8.c :                                                                                     3 r.l.k.g.g.a.f       ",
"      a.H ^ ( ~ K k ,                                                                                     , w.m E L Q I r       ",
"      x.D ~ Y L E v &                                                                                     3 i.K D V E Q e       ",
"      a.L K D E L H *                                                                                     & g.Y U } U Q y       ",
"      n.D _ U C b C *                                                                                     & r.D K ( L M e       ",
"      8.D ) C v E D *                                                                                     * 4.I C V H v q       ",
"      9.c l E V Z v &                                                                                     = i.D v H e Z i       ",
"      g.v a v f A w #                                                                                     * -.D h Y e f w       ",
"      2 2 2 : = : # =                                                                                     : : $ : 2 : & 2       ",
"      ,.6.8.i.9.9.H 2                                                                                     2 9.2.1.<.4.,.2       ",
"      :.A l m D V V =                                                                                     , <.c c v b A ,       ",
"      =.m h c C M M ,                                                                                     : 4.v k v f A ,       ",
"      %.a f a c k f 6                                                                                     * *.f m M l t &       ",
"      #.t f w y a y ,                                                                                     , &.k m c v q &       ",
"      #.4 r r 6 w r *                                                                                     2 -.e e p i 6 $       ",
"      #.6 2 e : 8 w #                                                                                     : #.6 & 3 4 8 +       ",
"      O.= + 4 * 6 : #                                                                                     : ..w $ 2 * , o       ",
"      = $ & : 2 = : ,                                                                                     * : : & 2 * = X       ",
"      6 2 * : 2 2 , =                                                                                     2 = & $ * $ = =       "
};
