/* XPM */
static char *_710a8e572314e08c4e6b859d7735691McOqR0PVqKkNPAfN[] = {
/* columns rows colors chars-per-pixel */
"64 64 157 2 ",
"   c None",
".  c black",
"X  c #171917",
"o  c #1A1C1A",
"O  c #251717",
"+  c #261817",
"@  c #271918",
"#  c #2C1C1B",
"$  c #311F1E",
"%  c #1F211F",
"&  c #33201F",
"*  c #232420",
"=  c #282722",
"-  c #262926",
";  c #2C2B26",
":  c #352221",
">  c #3B2524",
",  c #312F2A",
"<  c #3A3123",
"1  c #35332D",
"2  c #323535",
"3  c #383630",
"4  c #3B3933",
"5  c #373A3A",
"6  c #3A3D3D",
"7  c #412926",
"8  c #412928",
"9  c #403627",
"0  c #4A3325",
"q  c #4F3528",
"w  c #493F2D",
"e  c #513729",
"r  c #553A2B",
"t  c #593D2D",
"y  c #4C412F",
"u  c #56402D",
"i  c #5C422F",
"p  c #4F4330",
"a  c #44433A",
"s  c #48473E",
"d  c #49483E",
"f  c #504431",
"g  c #5D4530",
"h  c #554934",
"j  c #5B4E37",
"k  c #5C4F39",
"l  c #624432",
"z  c #684735",
"x  c #634A33",
"c  c #6C4B36",
"v  c #6F4C38",
"b  c #6B5037",
"n  c #63553D",
"m  c #6D5138",
"M  c #73553B",
"N  c #77583D",
"B  c #795A3E",
"V  c #434747",
"C  c #4D4B42",
"Z  c #454949",
"A  c #514F45",
"S  c #535147",
"D  c #555349",
"F  c #58564B",
"G  c #5B594E",
"H  c #4E5353",
"J  c #525656",
"K  c #5D5B50",
"L  c #545959",
"P  c #6B5C42",
"I  c #705F45",
"U  c #7D5D40",
"Y  c #615F53",
"T  c #706044",
"R  c #7C6A4C",
"E  c #636155",
"W  c #676558",
"Q  c #69675A",
"!  c #6D6B5D",
"~  c #666B6C",
"^  c #706E60",
"/  c #747263",
"(  c #797767",
")  c #7C7A6A",
"_  c #767C7D",
"`  c #836244",
"'  c #896647",
"]  c #8B6748",
"[  c #816E4F",
"{  c #8E6A4A",
"}  c #926D4C",
"|  c #867252",
" . c #937D5A",
".. c #817F6E",
"X. c #97805C",
"o. c #82806F",
"O. c #9C8660",
"+. c #9F8862",
"@. c #848271",
"#. c #898675",
"$. c #8B8877",
"%. c #8F8D7A",
"&. c #918F7C",
"*. c #93917E",
"=. c #A28A64",
"-. c #B0966C",
";. c #B49A6F",
":. c #BBA073",
">. c #C2A678",
",. c #969480",
"<. c #9D9B86",
"1. c #8D9394",
"2. c #909698",
"3. c #93999B",
"4. c #A5A38D",
"5. c #A9A790",
"6. c #ACAA93",
"7. c #B5B39B",
"8. c #B9B69E",
"9. c #A4ACAE",
"0. c #BDBBA2",
"q. c #B0B8BA",
"w. c #C1BFA5",
"e. c #C3C1A7",
"r. c #C5C3A9",
"t. c #C9C7AC",
"y. c #C8C7AB",
"u. c #CBCAAE",
"i. c #CAC8AD",
"p. c #CCCBAE",
"a. c #CBC9AE",
"s. c #CFCEB1",
"d. c #CFCEB1",
"f. c #D0CFB2",
"g. c #D1D1B3",
"h. c #D0D0B2",
"j. c #D4D2B5",
"k. c #D6D4B7",
"l. c #D3D2B4",
"z. c #D7D4B8",
"x. c #D7D4B8",
"c. c #D9D6BA",
"v. c #D8D5B9",
"b. c #D9D6BA",
"n. c #DBDABB",
"m. c #DBD9BB",
"M. c #DDDBBD",
"N. c #DEDDBE",
"B. c #DDDBBD",
"V. c #E1DFC0",
"C. c #E6E4C5",
"Z. c #E3E2C2",
"A. c #E8E8C6",
"S. c #ECEBCA",
"D. c #F0EECD",
"F. c #F1F0CE",
"G. c #FAFAD6",
/* pixels */
"                                                                                                                                ",
"                                                        Y ! E ^ F K &.$.                                                        ",
"                                                  D s / c.C.D.G.t.7.w.t.( ) &...                                                ",
"                                            , S ! W u.z.) ) $.$.! / Y E p.M.c.! 3 1                                             ",
"                                        ^ Y *.4 ( t.Q ( / ( / ) ! / W ! Y ) E e.3 D.C.N.3                                       ",
"                                    C A @.C.D.) 1 / ) @.o./ / $.^ / ! ! E / / 4 0.N.@.&.M.g.,                                   ",
"                                C S ( z.c.@.) 0.; @.../ ) / W @.! / ^ ! ! G G 1 u.@./ ) ! / t.A                                 ",
"                              1 ^ j.n.) @.( @.! r.1 ! / ( ) ) / ) K ! E E G , y.0.^ / ) ( ..! u.1                               ",
"                          D F ! , g...( / Q ( / k., , K ! W / W ! Q W G E , , 0.K / ! @.( / / 1 Q o.                            ",
"                        F $.n.y.1 ) ) o.( W @.( ^ e.1 D ! 1 4 = 4 1 ; E Y , K y.^ o.W ( ) / ) , ! c.W                           ",
"                      C ^ g.N.! ) 4 ) ..( / ! Q E 0.1 4 4 O         r 1 1 1 E w.o.o.Q Q ( ! 4 / g.@.M.S                         ",
"                    s ! d.( ( ) ! 1 E ) ! Q E E 1 , P i 7 + < w j P u 7 + < 1 4 ) Q ! ! / K 1 c.! / o.k.s                       ",
"                  4 W t.@./ ) / ! ( 1 ^ Q ^ 4 1 g g g ~ 2 g g g g g ~ 2 g g i g 3 1 / E ( 1 n.! / / ( ( d.a                     ",
"                a F u./ / ( ^ ^ / ( 4 G 1 4 0 0 0 0 0 2 X 0 0 0 0 0 2 X 0 0 0 0 0 2 1 3 K %.y.^ / ) o./ ^ c.a                   ",
"                a 7.g.( / / / ( ! E / 4 # 0 # # # # # # 0 # # # # # # 0 # # # # # # 0 # 3 ! ^ / / E ( ( W ( e.4                 ",
"              1 4 E K E Q / / ! ! E 1   x q #         c q #         c q #         c q #   1 Q W ^ ! ! ^ E ^ p.3                 ",
"            C c.3 1 F ! ! E ! ! E 1     c e #         m e #         m e #         m e #     1 ! E Q ! E K D 3 4 S               ",
"            s t.y./ 1 3 Q D K ! 4       m r $         M r $         M r $         M r #       3 ^ E E K 1 $.g.c.A               ",
"            A u./ g.) ) 1 A F 4         M r :         M t $         M t $         M r $         1 G K 4 V.k.! ! z.C             ",
"          F y.( ! ! g.A./ 3 4 # 9 h P | M t : f n R  .B t : f n R  .B t : p n R  .B t $ w k P R x 3 4 n.$.) ..^ u.a             ",
"          S r.^ / ! W ) j.4 2 l x c m M 1.V U U U U U 2.V U U U U U 2.V U U U U U 1.V B M M m b _ 5 1 ! ) ^ ) ( d.Y             ",
"          j.) / ) Q ) ) ^ 1 X 0 q e r t V % l l l l l V * l l l l l V * l l l l l V % t t r r e 6 o 1 Q ( ) ) ! ) Z.C           ",
"        G M.*.o./ / o.) 4 @ 0 # # $ & : : l > > > > > > l > > > > > > l > > > > > > l : : : & $ # e # 1 ! o./ Q / z.F           ",
"        S d.) ) ! E W / 4 g 0 #         ` l >         ' l >         ` l >         ' l >         M e # 1 E ^ Y Y Q ( k.S         ",
"        1 / ! ( E K ^ K 4 x 0 #         ` z >         { z >         ] z >         ' z >         M e # 1 E ! G Y Q ^ r.4         ",
"        d.1 1 1 G C ! 4   x q $         ' z >         } c >         { c >         { z >         N r $   1 F d S 4 4 ..s         ",
"      $.) l.e., 1 1 3 3   x q $         ] c 8         } v 8         } c 8         } c >         B t $   = 3 1 ^ F.N.N.! 4       ",
"      u.! ( ( d.y.E 1 1 I x q $ y n [ +.' c 8 n R  .-.} v 8 n R  .-.} v 8 n R X.-.} c > j T | X.B t $ w = 4 r.d.@.) ) / G       ",
"      p./ ) $.$./ y.; u i _ 6 m M B U ` 9.J } } } } } q.L } } } } } q.L } } } } } q.L { ' ` ` U 3.V M m c 1 0.^ ) ^ o./ A       ",
"      l.Q Q / ( Q G ; 7 7 5 o e r t i l H - c c c c c L - c c c c c L - c c c c c L - z l l l i V % r e q 1 7./ / ^ ) / D       ",
"      d.! ^ ) @.Q ! 3 + # # q $ $ : : > > z 8 8 8 8 8 8 c 8 8 8 8 8 8 c 8 8 8 8 8 8 c > > > > : : t $ $ # 1 y.! ^ @./ ( A       ",
"      S./ / ) / ! ( 1     l q $         ` z 8         } c 8         } c 8         } z >         B r $     4 u.K Y ( ! Q G       ",
"      n.Y Q G G ! Q 1     g 0 #         ` z 8         { c 8         { c 8         { c >         N r $     1 u.) E ! ^ E a       ",
"      u.G A / K E G 3     g 0 #         ` z 8         { z 8         { z 8         { z >         N r $     1 r.^ W @.A G s       ",
"      r.G D ( S E a 1     g 0 #         ` z 8         { z 8         { z 8         { z >         N r $     1 6.W K / s A d       ",
"      , 3 4 4 1 3 1 1     R x #         ;.' 8         >.{ 8         >.{ 8         >.{ >         =.M $     1 , 1 1 ; 1 3 3       ",
"      f.u.N.y.d.l.W 3     . | .         . :.            >.            >.            >..         . O..     1 e.n.c.y.t.c.A       ",
"      z./ ) ) *.^ E 1       .             .                                                       .       3 u.) ) / ( @.K       ",
"      l.) E Q ^ ! Q 1                                                                                     4 0.Y E / o./ F       ",
"      y./ / / ( W E 1                                                                                     1 j./ / / ( ) G       ",
"      t.G ^ / E G ! 1                                                                                     1 d.! ( / ^ Q D       ",
"      k.W E G Y ) ) 1                                                                                     1 c.o.E E Q E s       ",
"      t.F C ^ K ) / ,                                                                                     1 0.E G / A Q D       ",
"      0.D C E Y ( d 1                                                                                     , <.E G E C Y C       ",
"      1 1 , , 1 3 1 3                                                                                     1 4 1 , , , 1 1       ",
"      y.r.g.p.j.w.G 1                                                                                     4 r.l.g.d.d.u.S       ",
"      u.! ) ..) ^ F 3                                                                                     3 r.Y ( / ) / d       ",
"      j.! ) / / ( K 1                                                                                     4 t.^ ! E ( ) s       ",
"      u./ ^ ! ( / ! 1                                                                                     1 d./ / $./ ) C       ",
"      c.! @./ W K W 1                                                                                     1 r.! ^ ../ E s       ",
"      w.! o.W K ( ! 1                                                                                     1 0./ W E ! K a       ",
"      e.G G ( E Q K 1                                                                                     1 t.! K ! s Q C       ",
"      d.K A K S Q a ;                                                                                     1 6.! D / s S a       ",
"      4 4 4 1 1 1 ; 1                                                                                     1 1 , 1 4 1 1 4       ",
"      7.0.w.t.e.e.! 4                                                                                     4 e.0.8.7.0.7.4       ",
"      7.Q G Y ! E E 1                                                                                     3 7.G G K K Q 3       ",
"      5.Y D G W E E 3                                                                                     1 0.K F K S Q 3       ",
"      4.A S A G F S 4                                                                                     1 5.S Y E G C 1       ",
"      ,.C S a C A C 3                                                                                     3 4.F Y G K a 1       ",
"      ,.4 d d 4 a d 1                                                                                     4 6.s s C C 4 ,       ",
"      ,.4 4 s 1 a a ;                                                                                     1 ,.4 1 4 4 a ;       ",
"      &.1 ; 4 1 4 1 ;                                                                                     1 %.a , 4 1 3 =       ",
"      1 , 1 1 4 1 1 3                                                                                     1 1 1 1 4 1 1 =       ",
"      4 4 1 1 4 4 3 1                                                                                     4 1 1 , 1 , 1 1       "
};
