/* XPM */
static char *d695234bbd1d4010b7a34de074a190e5ZEPFQrCuYwm2zRr5[] = {
/* columns rows colors chars-per-pixel */
"60 60 192 2 ",
"   c #050C28",
".  c #0F1629",
"X  c #12162F",
"o  c #121622",
"O  c #141A30",
"+  c #1B212F",
"@  c #1C2334",
"#  c #1E2A3B",
"$  c #20272F",
"%  c #232B2E",
"&  c #252B35",
"*  c #292C34",
"=  c #21273B",
"-  c #252C3B",
";  c #2A2D3E",
":  c #2E3235",
">  c #26303A",
",  c #2B323D",
"<  c #32363D",
"1  c #383E3E",
"2  c #34393D",
"3  c #272D40",
"4  c #2A2E42",
"5  c #302F41",
"6  c #2D3343",
"7  c #2F3944",
"8  c #2D3349",
"9  c #2D384A",
"0  c #323643",
"q  c #333944",
"w  c #393E46",
"e  c #333548",
"r  c #383749",
"t  c #353C4A",
"y  c #393E4D",
"u  c #363C54",
"i  c #3B3D50",
"p  c #3D4246",
"a  c #36404C",
"s  c #3B424E",
"d  c #374352",
"f  c #3D4354",
"g  c #3F4851",
"h  c #3E4559",
"j  c #3D495F",
"k  c #414554",
"l  c #424A56",
"z  c #42475C",
"x  c #444B5C",
"c  c #494E5E",
"v  c #46515E",
"b  c #4A525E",
"n  c #404763",
"m  c #454D61",
"M  c #494E62",
"N  c #484F69",
"B  c #475363",
"V  c #4C5364",
"C  c #4E5A67",
"Z  c #4E556A",
"A  c #4E596A",
"S  c #515666",
"D  c #515A65",
"F  c #51566B",
"G  c #535A6C",
"H  c #595D6F",
"J  c #4F5672",
"K  c #545C72",
"L  c #595E72",
"P  c #585E78",
"I  c #576069",
"U  c #5C636F",
"Y  c #5C6375",
"T  c #57617A",
"R  c #5D647A",
"E  c #5D697A",
"W  c #546171",
"Q  c #606676",
"!  c #61667A",
"~  c #63697D",
"^  c #686E7E",
"/  c #69717C",
"(  c #5E6582",
")  c #656B83",
"_  c #696E84",
"`  c #656C89",
"'  c #696F8A",
"]  c #616683",
"[  c #667285",
"{  c #6B7286",
"}  c #667089",
"|  c #6C738B",
" . c #6C798B",
".. c #737987",
"X. c #71768D",
"o. c #73798E",
"O. c #797F8F",
"+. c #6D7591",
"@. c #6E7992",
"#. c #6F7A98",
"$. c #717692",
"%. c #747B93",
"&. c #787E94",
"*. c #767D99",
"=. c #787F9A",
"-. c #76808C",
";. c #7B8295",
":. c #76829B",
">. c #7C839C",
",. c #7782A0",
"<. c #7D85A1",
"1. c #7F89A4",
"2. c #838695",
"3. c #81869C",
"4. c #83899D",
"5. c #888E9E",
"6. c #8186A3",
"7. c #848BA4",
"8. c #898EA5",
"9. c #8487A8",
"0. c #868DAA",
"q. c #898EAC",
"w. c #8491A4",
"e. c #8B91A5",
"r. c #8791AD",
"t. c #8B93AD",
"y. c #8D98AE",
"u. c #9196AD",
"i. c #949AAE",
"p. c #9A9CAD",
"a. c #9295A6",
"s. c #8C8FB0",
"d. c #8792B0",
"f. c #8D94B1",
"g. c #8E98B3",
"h. c #9196B3",
"j. c #939AB4",
"k. c #9B9EB4",
"l. c #959CB9",
"z. c #9A9EBB",
"x. c #94A0B0",
"c. c #9BA1B4",
"v. c #96A0B9",
"b. c #9CA3BC",
"n. c #A1A2B6",
"m. c #A2A6BB",
"M. c #A3A9BD",
"N. c #9EA4C1",
"B. c #A2A6C3",
"V. c #A4ABC4",
"C. c #AAADC4",
"Z. c #A5ACC8",
"A. c #A9AECB",
"S. c #ABB1C5",
"D. c #A7B2C8",
"F. c #ADB3CB",
"G. c #ADB8CE",
"H. c #B1B4C7",
"J. c #B4BDC6",
"K. c #B2B6CC",
"L. c #B4BACD",
"P. c #BABDCE",
"I. c #AEB4D1",
"U. c #B2B6D2",
"Y. c #B4BBD3",
"T. c #BABDD1",
"R. c #BCBFD3",
"E. c #B9BDD5",
"W. c #BABED5",
"Q. c #B7BBD8",
"!. c #B6BCD9",
"~. c #B9BEDA",
"^. c #BAC1CD",
"/. c #BEC1D4",
"(. c #BDC2D5",
"). c #BBC2D4",
"_. c #BEC1D9",
"`. c #BCC2DC",
"'. c #BDC3E1",
"]. c #C0C3D7",
"[. c #C1C6D6",
"{. c #C1CAD4",
"}. c #C1C6DB",
"|. c #C3C9DC",
" X c #C8CBDA",
".X c #C2C6E1",
"XX c #C5CBE4",
"oX c #CACEE3",
"OX c #CAD1E6",
"+X c #CFD5EF",
"@X c #CDD0F1",
"#X c #D5DDF1",
/* pixels */
"n.k.k.k.k.k.k.z.z.z.k.k.k.k.k.k.i.n.k.m.p.@ i ; ; * * < : * : : & 0 0 + 2.c.p.m.i.i.n.i.c.a.p.p.m.c.i.u.c.b.l.k.k.j.i.k.",
"|.]./.].]._._.]._._._._.R././././.].[.P.S.f 4 t e y q w * p < 1 & k 0 t M.[.|.S.].R.]./.[.).[.).K./.}.}.|._.Y.E._.}.(.T.",
"T.L.K.L.L.L.L.U.U.L.L.L.L.K.K.K.K.H.S.8.8.! _ ].i.;.U & < 2 p : s o 2.L.H.K.P.H.E.Y.K.L.H.K.K.S./.E.K.A.K.U.K.U.F.Y.F.c.",
"T.K.K.K.U.U.U.U.Y.Y.Y.U.L.L.L.L.L.K.K.u.3.&.%.T.M.c...s k $ w % e y m.R.H.R.S.L.K.K.L.R.M.L.T.R.K.K.K.F.Y.U.I.U.F.U.F.m.",
"j.u.y.h.h.h.h.h.h.h.h.h.u.u.u.u.u.e.i.j.y.j.>.X.4.(.c.J./ q q , ;.P.S.L.k.8.Y.U.E.~.Y.C.%.o.o.o.) t.Y..X!.N.h.l.l.h.l.m.",
"y.r.8.r.t.q.q.t.q.q.q.q.q.8.8.8.h.8.8.e.>.r.0.] 8.Y.b.|.-., t > i./.C./.k.t.U.~.A.A.U.B.' ) X.{ =.j.I.!.I.z.t.f.t.7.t.b.",
"j.h.y.h.h.g.f.h.h.f.g.g.g.g.y.y.8.8.h.y.t.h.v.h.>.| | X.H + t @ 4.oXb.>.V..X| ' ` ' t.h.7.z.`.E.F.V.h.q.h.h.q.q.f.t.f.l.",
"g.t.r.t.t.r.r.d.d.d.d.t.t.t.r.r.h.r.g.1.g.t.9.h.r.} %.;.A d d 6 8.E.u.b.V.I.6.=.<.*.h.h.q.l.Y.B.U.V.f.7.f.f.f.f.q.f.f.t.",
"h.y.0.0.g.d.r.l.f.d.d.d.t.t.t.r.t.t.0.t.h.g.t.g.>.v.y.t.b.x.E @ e.oXE.U.h.t.U.~.'.'.!.A.l.q.q.q.t.f.f.f.f.f.f.f.f.f.t.q.",
"h.g.g.g.l.f.q.f.f.d.d.d.t.t.t.t.g.j.h.t.t.r.t.h.j.j.0.t.t.%.A # ;.Y.K.`.z.f.A.B.A.I.A.B.l.g.g.h.t.f.f.f.f.f.f.f.f.f.t.t.",
"g.t.t.t.f.f.f.f.f.f.f.d.t.t.t.t.8.y.g.y.g.g.t.9.r.r.h.t.A # 9 d ) h.b.~.l.9.l.7.f.f.h.f.t.q.t.t.t.t.f.f.f.f.f.f.f.f.t.t.",
"y.r.r.t.0.t.f.s.f.f.g.f.t.t.t.y.y.h.y.7.<.t.l.g.t.*.8.b. .h f 6 | t.B.`.l.7.l.q.f.f.f.f.f.h.h.h.t.f.t.f.f.f.f.f.f.f.d.t.",
"y.y.h.h.t.g.g.9.g.g.g.t.t.t.t.t.j.t.7. .] =.h.l.9.{ { 8.4.| G @ o.u.C.}.l.7.h.f.h.f.f.f.h.h.h.y.t.t.t.t.f.f.f.f.f.f.t.r.",
"i.t.t.8.>.f.N.l.f.f.t.t.t.t.r.e.8.;.>.r.j.B.z.=.>.t.r.8.4.&.L - { t.V.E.h.7.q.q.q.q.q.q.q.t.r.r.t.t.t.t.t.f.f.f.f.t.t.r.",
"j.8.8.>.%.h.F.Z.q.t.t.t.y.t.e.8.5.o.8.S.}.XXb.` q.`.K.k.m.j.Y @ | i.S.Y.l.g.t.f.g.g.g.h.g.g.g.h.t.t.t.t.t.t.f.f.g.t.t.r.",
"i.t.j.u.7.j.A.z.q.q.t.y.y.t.8.8.4.o.>.u.y.y.8.| 7.`.h.Y { o.V - { u.b.B.y.y.0.t.t.f.f.f.t.r.r.r.t.t.t.t.t.t.t.t.g.t.t.r.",
"j.r.q.b.XXI.:.f.0.g.f.g.r.y.t.{ | 8.i.^ ~ ) { _ 4.|.4.x x F f 3 ` b.8.t.h.t.r.q.t.t.t.t.f.f.f.f.f.f.g.g.g.g.f.t.t.t.t.r.",
"j.8.t.h.b.l.7.h.t.h.0.g.h.>.>.4.8.%.;.o.;.c.e.M { }.4.B V Z d 3 ` v.7.8.t.t.t.h.f.f.f.f.f.f.f.f.f.f.t.g.f.t.t.t.g.y.t.t.",
"h.7.y.y.0.t.f.t.t.N.t.q.h.*. .8.8.{ | o.%.Y.c.. Z oX8.x V S f ; { v.8.r.t.t.t.y.h.h.h.h.f.f.t.t.f.f.f.t.t.t.t.t.t.t.t.t.",
"j.8.8.t.t.h.g.q.f.t.*.9.t. .` >.>.Y K _ X.|.S.@ V #Xe.f c F l & { j.r.u.u.u.r.r.y.g.g.f.f.t.t.t.h.g.g.f.f.f.f.g.r.r.r.r.",
"h.t.7.r.l.q.9.t.h.$.` r.i.%.| %.` F h ] >.G.e.- L |.4.x V D d & { t.r.u.t.u.8.t.t.t.t.t.t.t.t.t.h.f.f.f.f.d.f.f.r.r.r.r.",
"t.j.t.j.l.=.+.%.<.%. .*.*.%. .Z P y.k.V.Y.oXc.h V ;.H b D b q , ;.u.u.i.8.y.8.t.r.r.t.t.t.t.t.t.q.q.t.q.t.t.t.r.g.f.t.t.",
"e.e.w.y.8.>.>.| ( >.*.{ ` { ) C Z S.XXY.K.S.k.F x B l b b D t 7 _ >.e.i.8.i.8.t.t.t.t.t.t.t.t.t.q.q.t.t.t.t.t.t.g.y.t.t.",
"c.>.| o. .r.F.r.' 7.7.y.i.%.o.k.B.E.G.v.8.Y ~ M C B C b g I g - f L &.e.e.k.t.t.u.u.y.u.y.t.t.t.t.f.f.f.g.g.t.t.t.t.t.r.",
"i.o.;.>.R t.XXh.' 3.u.t.7.;.~ S.}.m.E.i.>.f F x F D b c V V g , 6 & X.j.8.t.e.t.e.8.y.t.7.t.j.r.h.h.7.0.t.h.%.g.t.7.j.t.",
"F H e.4.{ 8.`.v.8.>.%.{ o.8.4.|.F.%._ Z Y V ! C B b b b b b s 6 t = Z R F H C Z G Z F Z V ] 8.h.h.7.%.=.%.) Z 7.j.y.4.M ",
"S ! c.4.;.t.E.b.8.=.| ) | 8.5.M.M.&.~ V B x C f b c b V b g q 6 h 6 x x x C x x B V F Z M Y >.t.3.&.) _ _ K x &.e.e.;.x ",
"e.p.|.L.L.S.k.o.M x F V M F c V B c C C c C H F S V C C c t 6 q e 6 i d M L C F M V F Z V V F K G L M M L Z f Z Z B H x ",
"5.e.c.M.M.i.&.~ M M L F B S F V V V V V b D C B B B B B f t e y ; 6 t t x B x M C V V C G F M z M G V x F V B C v d c l ",
"e e - t 6 - 6 t 3 = 3 @ = - 6 & & - & - & , , , 6 6 6 6 3 - 3 6 - 6 6 - 6 6 3 6 3 3 - 8 z f 6 - ; - - & - @ 7 7 a q s - ",
"y y - f V f G z x M G S L V D V b D I D D v b C c B V B V Z F Z C C B V B c B V M V V G ) ! Z C S c S S V b U q > , s , ",
"G c 6 S i.c.OXM.t.m.Y.P.[.S.P.P.J.J.J.J.{.P.^.).P.).).P.Y.(.).K.).P.P.[.).L.).).Y.).L.L.}.).Y.|.P.^. X[.).{.^.I > > s , ",
"k k i L k.j.Y.v.z.Z.Y.~.Y.K.U.~.K.L.F.F.L.K.L.G.F.P.S.(.S.M.M.K.C.V.S.E.G.S.Y.S.Y.E.Y.Y.b.S.D.D.A.C.A.B.6.k.OXZ x t q q ",
"5 r x S 3.b.+X`.I.Y.`.`.~.~.~.`.(.).).Y.Y.Y.).).).).S.Y.b.e.4.8.7.y.b.E.`.E.).G.Y.E.G.S.r.t.r.r.h.6.j.Z X ] ;.i.i.c & 6 ",
"e i _ 4.F.y.8.j.F.Z.V.V.V.V.V.V.b.M.M.M.M.M.V.V.b.M.c.V.c.i.r.8.r.j.h.b.B.l.v.b.S.Y.I.S.r.t.t.h.q.h.h.*.R t.i.t.e.R C q ",
"0 c 8.m.oX>.u ( h.g.q.q.q.t.q.q.t.r.r.y.h.i.y.y.r.h.r.h.y.t.i.r.0.t.$.) ) T ) +.Y.~.~.I.g.g.t.g.j.l.q.A.oX`.#Xc.>.e.i.B ",
"; G C.a.m.j.%.9.t.t.q.q.q.r.t.t.t.7.>.:.<.>.:.>.>.<.>.>.>.=.r.y.t.h.6.:.<.<.t.l.N.V.N.N.0.t.t.q.h.6.h.h.Z.>.' b.V.t.8.f ",
"5 S oXC.8.C.`.F.0.t.g.g.f.f.h.h.8.*.{ {  . .+.$.{  .| { +.| 0.h.7.h.q.t.h.z.I.~.0.q.0.g.7.h.h.f.h.h.s.q.f.J   0.OXv.8.x ",
"; z |./.c.b.b.g.q.q.t.f.t.t.t.t.t.6.:.>.=.$.+.%.+.|  .| +.( :.q.t.g.f.f.0.g.V.Z.h.h.f.h.9.g.q.9.j.B.h.h.l.=.K l.b.r.r.L ",
"4 H P.K._.V.9.r.f.g.g.g.g.f.t.t.h.h.l.l.0.$.` ` ` ( ` | *.` <.g.9.t.f.h.9.1.f.6.s.f.d.h.7.f.f.q.0.z.@XN.7.l.N.f.y.7.h.*.",
"3 G T.K.Y.S.9.l.g.d.d.f.g.g.f.t.g.g.t.0.f.b.N.b.b.B.b.N.t.*.l.I.z.l.f.d.f.q.7.f.l.q.q.l.q.h.q.f.f.h.9.7.f.<.+.*.+.r.t.%.",
"3 G L.F.G.S.9.g.g.f.d.t.t.q.q.0.0.t.t.f.b.U.'.'.~.'.!.~.A.l.F.`.g.t.t.f.g.f.f.h.q.0.t.h.t.g.9.g.h.$.( :.l.<.' %.+.9.y.7.",
"; M M.b.b.b.1.r.f.f.f.f.g.g.h.h.g.h.g.q.t.h.z.l.l.b.l.b.h.0.h.z.g.t.g.f.t.t.g.t.t.g.g.h.d.q.$.9.h.j.q.$.( ( +.,.r.>.@. .",
"4 c u.8.r.h.9.r.0.r.r.r.q.t.f.g.t.g.h.g.t.t.q.7.0.0.0.t.t.0.t.t.g.t.h.h.0.q.t.0.h.h.0.0.t.0.` *.6.l.h.) n K *.7.g.:.` ] ",
"e M t.8.0.h.f.f.g.g.f.d.d.t.t.t.9.t.g.h.h.h.h.g.g.g.h.g.g.h.t.t.0.t.g.t.t.g.h.t.g.0.%.:.t.f.| *.9.] K ] ) T K K T [ %. .",
"4 M u.u.t.h.f.0.d.d.d.d.f.h.g.g.y.y.t.q.0.0.0.0.t.r.y.8.t.l.t.9.t.j.h.0.y.g.8.7.g.7.%.*.6.7.` { %.Z m ` *.T j j B E | | ",
"3 M u.u.r.f.f.,.+.+.#.,.0.t.t.0.h.y.r.r.t.y.g.h.g.r.h.t.b.U.b.g.v.F.k.7.y.r.*.*.i.8.>.7.%. .G K m Y ` [  .[ ) @.| | | [ ",
"6 V u.u.7.r.f.,.+.+.#.,.r.f.g.q.h.y.t.t.g.y.r.0.y.7.t.q.b.~.b.q.B.E.v.3.h.r.|  .r.8.t.t.{ R m m Z  .%.{ *.:.| @.|  .| [ ",
"e f t.e.| X.%.+.' ' $.' %.q.q.q.f.9.f.f.s.f.d.g.g.t.t.h.V.Y.!.I.`.S.`.F.t.h.t.8.$.{ h.9.l.8.u %.Y.~.G.Y.Y.w.E  .[  .[ E ",
"6 c c.e.{  .%.| $.$.*.+.*.<.6.h.z.l.d.q.q.f.h.0.h.h.f.g.N.I.Y.Y.A.C.U.G.h.0.h.r.%.>.t.7.0.+.N *.G.G.D.D.D.w.[  . .[ E H ",
", C i.4.{ { $.| $.$.+.` $.$.:.F.U.t.q.f.h.g.7.b.q.t.f.t.t.g.f.t.h.h.r.h.>.| r.q.y.t.$. .*.' ' %.%.| { | @. .|  .| E V v ",
"q c O.X.X.X.$.X.| $.$.| $.R R z.N.B.l.t.t.q.q.7.7.q.t.q.7.9.7.7.8.7.7.t.>.X.7.8.t.7.` _ X.{ *.{ o.{ { | [  .%.[ E A x c ",
"6 6 k V { | { { ) | $.$._ z 8 P >.Y.A.XX`.0.q.) ' { ' ` `  .6.h.=.X.8.h.u.8.%.*.{  .%.%. . .{ { { { &.%.[  . .G A B v V ",
"q - - f X.X.| %.{ X.X.{ { F f R %.k.Y.y.t.b.:.*.$.$.$. . .%.>.r.{ ~ ;.>.7.7._ { | ) { ) { =.| o.o. .&.| E ) [ W B B C D ",
"s s t x ;.o.X.&.=.X.X.{ o.o.{ 3._ 8.b.O = m.>.>.{ { X.%. ._ ) ` o.| { { X.o.{ X.;.) G F _ =.| | &.o.{ G x m B x v V V B ",
"& t q y ~ L G L ! L Y Y ~ { Q Y Y ;.X.Z ~ 3.o.~ { _ { X.$.X.X.X._ o.! ! ~ Y _ ~ ! Y M F ~ ~ ! ! Y ~ ~ L V B B v B V v l ",
"0 0 q q 0 6 0 e 6 6 e k V S V b F f G k.i.X.^ M L ;.o.X._ X.X.o.&.{ G x x M V V M M F F c x M c V V C C C A C C V V v g ",
"0 0 0 0 0 0 e e t e e y k k k k c f x ^ ! C S f x F L &.| Y L ) ! Q H V x x k f k x C F V V S V M M M B B B B v v l s t ",
"< 2 0 0 0 0 e e t q e q q 0 0 q 6 0 6 0 6 , q 6 y 6 f X.~ M x V x V S c f t e 6 t y c C B B V B F F F F F F D C l s q 0 ",
"< < < 0 0 q q 0 0 0 0 0 < < < 0 , t 6 , 6 6 6 t q 6 y ! B z x f y k l s q 6 6 6 6 q g c k g k f i i y y y a a t l t , 6 "
};
