/* XPM */
static char *da70a99be700489bb7dc2d651039b5e1Wu9Ap8b7Ry2wNWBF[] = {
/* columns rows colors chars-per-pixel */
"60 60 122 2 ",
"   c #030104",
".  c #080508",
"X  c #0D0A0C",
"o  c #110E0F",
"O  c #12100F",
"+  c #110F10",
"@  c #151313",
"#  c #191616",
"$  c #1C1917",
"%  c #1E1B19",
"&  c #211E1B",
"*  c #25221E",
"=  c #29241F",
"-  c #272420",
";  c #292621",
":  c #2D2A24",
">  c #312D26",
",  c #322F28",
"<  c #333027",
"1  c #35322A",
"2  c #3A362C",
"3  c #3D392E",
"4  c #3E3B30",
"5  c #403B2F",
"6  c #423D32",
"7  c #464135",
"8  c #494436",
"9  c #464239",
"0  c #4B4639",
"q  c #4E493A",
"w  c #524D3D",
"e  c #56503F",
"r  c #59523E",
"t  c #524E42",
"y  c #565141",
"u  c #5B5542",
"i  c #5E5845",
"p  c #565349",
"a  c #5B5648",
"s  c #625A46",
"d  c #645D49",
"f  c #685F4A",
"g  c #67604B",
"h  c #6B634D",
"j  c #6F684F",
"k  c #70674F",
"l  c #70684F",
"z  c #666152",
"x  c #6D6651",
"c  c #6F6852",
"v  c #6E6959",
"b  c #706750",
"n  c #736B53",
"m  c #786F56",
"M  c #736D5A",
"N  c #7A7157",
"B  c #76715C",
"V  c #7C745A",
"C  c #7F785D",
"Z  c #777261",
"A  c #7B7561",
"S  c #7E7865",
"D  c #7F7969",
"F  c #80775C",
"G  c #81795D",
"H  c #847A5F",
"J  c #857B60",
"K  c #857C60",
"L  c #807964",
"P  c #837C65",
"I  c #857D64",
"U  c #887F62",
"Y  c #887F64",
"T  c #857F69",
"R  c #878065",
"E  c #8A8163",
"W  c #8A8264",
"Q  c #8C8265",
"!  c #8F8567",
"~  c #878169",
"^  c #8B836A",
"/  c #8C8369",
"(  c #8D856A",
")  c #8F866B",
"_  c #918767",
"`  c #928867",
"'  c #90876A",
"]  c #958C6A",
"[  c #948A6C",
"{  c #958B6C",
"}  c #988E6D",
"|  c #9A916F",
" . c #858071",
".. c #8C8673",
"X. c #8F8875",
"o. c #918971",
"O. c #968E73",
"+. c #9F9371",
"@. c #9C9272",
"#. c #9E9573",
"$. c #97917C",
"%. c #96907D",
"&. c #9A937A",
"*. c #9C947A",
"=. c #9D967B",
"-. c #A19774",
";. c #A29974",
":. c #A29875",
">. c #A69C7C",
",. c #ADA17E",
"<. c #9B9681",
"1. c #A39B80",
"2. c #A19A84",
"3. c #A09B8A",
"4. c #A39D89",
"5. c #A7A18C",
"6. c #B8AF8E",
"7. c #ABA691",
"8. c #B3AE9B",
"9. c #B5B09E",
"0. c #BDB79F",
"q. c #C5C0AA",
/* pixels */
"y d n n u 7 6 6 8 u x N N j y 7 2 1 1 2 6 6 7 7 6 2 1 : - : 1 3 2 > ; - : 5 r s s u y y r w 0 w f h f f n F U G m n N G ",
"f j m n d e w e u f x N C m i w w w 8 6 3 2 2 2 2 2 2 < : > 1 6 8 0 7 6 6 y n N n f i i s a r u h h f s x V Y I C V J I ",
"N V V V m n m m m m m G ^ L g f n N h w 3 : = = : 2 4 4 2 2 3 0 f n m c x V O.&.^ m h x x x d f j h i u f n P ^ T P T T ",
"G G K E ! ] } ! G C ( =.2.X.n j C W N f 8 : @ @ - 2 7 7 4 4 0 g G ' O.( Y o.4.4...C N C S M y w u u q 7 0 a c B M M M M ",
"n N J [ +.;.#.K z M 2.0.8.%.N d g n n j a 2 @ O ; 6 8 6 1 6 s V K W / Y H I .. .Z m G ( T z 4 > 4 7 3 1 2 6 q w q 0 0 q ",
"m V Q +.#.} W x y v 5.q.9.<.W l u f m C x 6 @ . & 4 7 3 : 4 x ^ [ W J V N N V M n C ' O.S p , : 3 7 2 : > 1 3 3 2 2 2 3 ",
"K W ' [ ! V g w w x %.7.3.%.O.J f j I ( v 4 o   # 1 7 3 : 3 z ^ O.[ J m n n n m N / #.[ v 0 6 0 y y 7 2 3 3 3 3 3 6 6 7 ",
"n m m n h u 0 8 w d B S A Z A n s f m B a 1 @ . + ; 2 3 1 2 t v Z B x d i u i f x N C v t 7 0 s j h y 0 8 7 6 4 6 7 0 0 ",
"7 8 0 0 0 8 8 0 w w w q w q 0 0 0 q w 0 6 > = $ $ - 1 3 4 4 6 9 0 q q 0 8 6 6 7 q q 7 4 3 7 w f n n f y w 0 7 6 3 6 0 w ",
"4 3 6 8 w u u u y 0 6 3 6 7 6 7 0 0 7 4 1 2 6 6 6 3 3 7 w 0 6 3 7 0 7 6 3 2 1 2 6 6 2 2 7 w i g x j f s s s i w 8 0 e a ",
"a u u f m V m h i w 8 8 w u h j f a i w 7 0 a j j s w w s s w y g h y 8 7 3 1 2 0 u s i s s h j h s u f n V C n s s h n ",
"m n n m G J N x g i u y a h N V m b j s w w g m m j d s j h s h V V d w 0 6 1 2 0 f n n f i s s y w w u h N C N h g n m ",
"n n n x h h h h j g a y u s d h m m h y 0 w a f i i s g h f a i j j a e e 7 : ; 3 w s i w 0 0 0 7 7 0 w 0 w s g d s g g ",
"d f g s w 0 w i h d 0 7 w u y s x j u 0 8 0 w 0 6 8 u f i t w 0 w w w w y 7 = % 1 0 w 0 7 6 6 4 3 4 7 8 6 6 0 y d h h h ",
"w y u e 8 4 4 w d r 1 : 7 a s f f u 0 7 8 0 8 6 1 6 e i w 7 6 6 4 6 7 w y 7 = % 2 0 w 0 8 7 6 4 2 3 6 8 0 8 7 e c V N n ",
"3 6 7 7 6 3 3 0 i 0 = $ 1 w u y w 0 0 0 0 0 8 6 2 6 0 w 7 3 2 2 1 4 8 e y 3 $ @ : 8 0 0 8 6 2 1 2 3 3 6 0 8 6 w n V n g ",
"> , 1 3 6 7 7 w u 0 : & > 4 7 7 6 0 y u w 0 w w 0 8 8 8 6 3 2 1 2 7 w u w 1 @ + = 3 7 8 6 1 ; ; 1 3 2 2 2 2 2 0 h h w 7 ",
"1 2 3 6 7 7 8 0 w 0 8 8 8 7 6 3 6 0 e y w 0 0 0 0 7 6 2 2 1 > 1 3 8 w w 0 5 > ; > 1 2 2 2 > - ; 1 3 3 2 2 1 1 6 e w 2 : ",
"0 w y y 0 7 7 7 7 w g m n s 0 8 0 w 0 8 8 7 6 6 5 2 2 1 > : : > 2 3 3 4 8 w s s w 3 > > 1 2 2 2 4 6 7 7 8 6 2 2 6 6 1 : ",
"d g x h u 0 0 0 0 a n H H m d u i i w w 0 0 0 0 0 w 0 0 7 6 3 3 6 3 2 3 0 h G G h 0 3 6 0 e e w w 0 0 w y w 7 6 8 0 8 7 ",
"j n n n h s a u a d f j m m x g h j h f i i d h n m n n j f a e 0 7 6 8 u n G G n d u s j n k h f i e y d i w w u f g f ",
"h h h h g d s d h d y y s g h f f h j g a u d n G W U V m n h d u w 8 0 u f h x g s s g n V V N N x s s h g u e a f h h ",
"a i a y w w y i s a y w e u a u w w y w 8 6 8 a m G V x s u a s i w 7 6 8 0 w w w q w e s l V K I V h d g f y 0 0 0 0 0 ",
"u u y w 0 w y u u u u a a s i y 0 8 0 8 6 2 2 0 d x g y q 0 w u i w 6 2 4 6 6 7 8 0 w w w u n I ( J h u e y w w w 0 4 2 ",
"s s s s u u a u u u s h n n h s e w 0 8 7 6 6 0 y u y w w w w y y 0 3 2 6 8 7 7 0 i b f 0 0 g H ' G d 7 4 6 0 i n d 7 1 ",
"u s h h s y y e w w e s j j i w 0 8 6 4 4 6 6 6 7 6 6 8 w w w 0 0 7 4 3 6 0 q w e g F m y 0 i n V n w 1 : : 3 u m g 7 > ",
"w u j c i 0 0 0 0 0 8 8 w w 7 3 2 1 : : , 2 2 2 2 1 2 6 w e w 7 4 6 7 8 6 7 y u y s m m s y u f d y 6 : - ; 1 0 s y 4 : ",
"w u j n s w 0 0 w w w 8 8 8 6 3 2 2 2 2 2 6 8 0 8 7 7 0 u u 0 6 3 6 0 0 6 8 u i w w i f d a e 0 0 7 6 2 1 1 3 7 0 7 3 1 ",
"g h n n h d i i d g h f u y u u y w y y u s h n n h i i h f w 7 8 0 w q 0 w s i w 7 7 0 u u 0 7 7 8 w w 0 w e w 0 8 0 0 ",
"K H F V V V V V N V G V n j m m n n m m N V K Q W G n x x h i y w 0 0 w a h x f w 7 6 8 e e w w s j m m n n n h s a s g ",
"O.} ' ' Q ' } } W K K K V V G K H G C G K ! ' ' ( K V v h x n j u 0 0 a n F C x y 0 y a y e u n W } [ Q E K G C N N N N ",
"[ [ [ [ } +.;.+.W J W ! ! ! ! ' ] Q N V ( +.} ' W J N N V I [ W c s g m F Y R n w w x m s w u V ;.,.+.( _ ` ' ( _ ! E U ",
"m N V K ! ] [ E V N H _ } } ' } -.Q h z ^ =.[ K H V m C [ >.>.O.J C Q Q V N V f 6 0 M A d 0 0 j [ +.W N G E _ ' ! E U U ",
"e e y f n N m h i s j N V N m V K n 0 9 z A n g f s y g A ~ S M z x m x y 0 w 8 > 2 a z y 6 3 w x m d y s j n n h h j n ",
"2 2 2 6 w y y 0 6 6 0 w 0 7 7 q u w 1 : 4 0 8 7 7 6 2 4 9 9 2 < 1 2 1 : = & = = = ; 1 4 4 2 2 3 8 8 4 3 7 0 0 8 3 6 8 0 ",
": : : 1 3 6 7 6 3 2 3 2 , : : 2 6 8 7 6 3 5 7 8 8 7 6 6 4 1 ; ; 1 3 2 > - % $ = > > ; ; , 3 4 4 3 2 1 1 2 6 7 7 2 : : : ",
"; > 2 4 4 3 6 6 7 7 6 2 1 1 2 6 0 s n n f s g x c n n j f u e u f n m j y 6 2 3 8 8 2 < 1 6 0 0 7 6 7 6 7 w i d y 3 ; % ",
"> 2 6 8 7 7 7 0 0 0 0 6 3 4 0 u h G O.o.J F Q [ ' +.>.+.N f f h l N G V x u 0 0 w 0 8 7 7 0 r u w w u u w u h x d 0 1 : ",
"1 2 4 7 7 7 0 0 7 0 q 7 1 1 0 j H ' O.( J J } #.| >.6.1.x 7 6 7 8 0 0 w y w 7 3 3 6 7 0 w w y e w e d f u y y y q 0 8 8 ",
": : < 2 3 4 4 3 3 6 7 2 ; : 0 n E ' I m n N W ( K ( O.D q ; & - ; ; * - 1 2 > ; ; > 2 7 0 w 0 8 6 7 0 w 0 8 7 7 6 8 0 w ",
"$ * ; < 1 > ; : 1 2 1 ; = : 7 f N N h y y s h x f i p 0 1 = & ; > > ; = ; ; = = ; : : 1 6 8 4 1 , : : : , 2 6 7 8 8 8 8 ",
"# * , 3 2 < : > 2 2 > ; : > 1 6 0 0 6 2 1 2 6 6 6 3 2 2 6 7 6 7 w w w 8 6 3 6 4 2 : ; : 1 1 : ; ; - % * : 4 7 0 w 8 6 6 ",
"; 1 8 e 0 8 0 8 7 6 6 7 6 2 : = = = = = & & ; > 2 5 0 u h n n n m V G V c x n h 0 3 1 1 1 > ; ; > < 1 3 8 w w w w w 0 8 ",
"0 w f g i s j h u u z n v i 7 , : : > < 1 2 6 8 w u h m G K H G K ( ' ' K G K N i w w w 0 7 2 2 6 0 y s d s u y u s s f ",
"n n n h f j V V j c ~ &.&.^ m d i y w w s j m N N B m N V N n m V J G V m n x h s s g n n g e 0 y g n n j s a s f n N V ",
"b j g f f n G V h h V o.=.+.U N N x u u j V K U K C m n n h s f x n j f f a y y i g n F G m s w w s j n j s a u s j N V ",
"0 0 w a f j m x u 0 0 a C K m j j s 0 7 0 u g j j h g g h g s s f f s s i u w w u d j n k g u 0 6 6 w s g d y w w y a s ",
"2 6 0 a g n m h y 3 : 2 y f a u f s w 7 4 8 u f f s d g j j g f f f s s s s u u i s d s a i u w 6 3 8 u f s w 0 0 w w w ",
"7 8 w i f x m n s 8 1 1 7 0 0 w g n x a 0 w g n b g g g h j g g f s a i d d a a s i y w y s f i w 0 y i s y 0 8 0 y u u ",
"7 7 8 8 7 8 w w 0 3 : ; : , < 3 0 u s e 8 8 y s a u u u u y e y w w 0 0 0 0 7 6 7 6 2 2 6 0 w w w 0 0 0 8 6 2 2 6 8 8 8 ",
"2 2 > = $ # $ & = = $ @ $ $ % & = : 1 2 < > > > 1 2 3 3 3 2 1 1 1 1 : ; = = & $ $ # @ $ - > 1 1 1 1 > ; = * * = ; ; - = ",
"4 2 , = $ @ @ # = ; - & & & = - : 1 3 6 5 > & @ $ * = ; : ; = & $ % % $ @ @ @ @ O @ # & ; < > : = $ # @ @ # # $ % % % % ",
"w w w 0 7 5 2 5 0 w w 6 2 1 4 0 y f j x d 0 ; $ % * & = > > = $ @ $ ; : = & = : , 1 2 4 8 0 7 2 - # @ $ & = * * ; > 1 2 ",
"j j j j j f s f j n g e 7 6 q s h n m n g w 1 : : : ; : 2 2 > ; ; , 6 8 7 6 7 0 w e e y u u w 6 > ; ; 1 6 6 3 2 2 6 0 w ",
"N N N n c h h j n j s 0 3 4 0 y w w q 0 9 4 2 1 2 2 2 2 2 2 2 3 8 w w u s f i u a i u u w 0 6 3 3 6 8 w u u y 0 0 0 w w ",
"m m m j d s g j j s w 6 2 6 0 w 7 3 1 , : , 2 4 4 6 6 6 6 4 6 7 w w w u n m j s a u e w 0 7 3 3 6 8 0 e s g g u q 8 8 0 ",
"i s s a w q y s a 0 2 1 2 7 0 w w 8 3 : ; : 3 6 3 3 7 8 8 7 6 3 2 1 1 8 f x f y w 0 8 8 0 7 4 4 6 4 < 2 w s d y 7 2 3 4 ",
"8 8 7 4 1 , 2 3 2 : = - 1 6 0 w w 0 4 > ; : 1 1 : < 3 7 7 4 1 ; * % & : 4 8 6 3 1 > : , 3 3 2 1 1 ; $ & > 6 6 2 : ; : : ",
"4 3 1 ; & $ $ $ $ # @ % : 4 0 w 0 6 1 : ; ; : ; - : 1 4 4 1 ; & $ $ $ $ & = = = & $ $ % - : : : ; & $ # % & & % $ & = ; ",
"3 2 : & # @ o X X X + $ - 2 0 w 7 2 > : ; ; = * * ; , 2 2 > & $ $ & $ @ o o @ # @ + + @ $ = ; = & $ $ # @ o X o @ $ * = "
};
